<svg xmlns="http://www.w3.org/2000/svg"
  width="495" height="184"
  viewBox="0 0 495 184"
  role="img"
  aria-label="Top programming languages for epmyas2022">

  <title>Top Languages – epmyas2022</title>

  <style>
    .card      { fill: #161b22; stroke: #30363d; stroke-width: 1; }
    .title     { font: 600 14px -apple-system, BlinkMacSystemFont, 'Segoe UI', sans-serif; fill: #00D9FF; }
    .updated   { font: 400 10px -apple-system, BlinkMacSystemFont, 'Segoe UI', sans-serif; fill: #484f58; }
    .lang-name { font: 500 11px -apple-system, BlinkMacSystemFont, 'Segoe UI', sans-serif; fill: #c9d1d9; }
    .lang-pct  { font: 600 11px -apple-system, BlinkMacSystemFont, 'Segoe UI', sans-serif; fill: #8b949e; }
  </style>

  <defs>
    <!-- Clip all bar segments to the rounded bar shape -->
    <clipPath id="bar-clip">
      <rect x="20" y="52" width="455" height="10" rx="5" />
    </clipPath>
  </defs>

  <!-- Card background -->
  <rect width="495" height="184" rx="6" ry="6" class="card" />

  <!-- Title -->
  <text x="20" y="30" class="title">⚡ Languages Used</text>

  <!-- Last updated -->
  <text x="475" y="30" class="updated" text-anchor="end">Updated Mar 2, 2026</text>

  <!-- Stacked bar background track -->
  <rect x="20" y="52" width="455" height="10" rx="5" fill="#21262d" />

  <!-- Stacked bar segments (clipped to rounded track) -->
  <g clip-path="url(#bar-clip)">
    <rect x="20.00" y="52" width="329.28" height="10" fill="#8b949e" />
    <rect x="349.28" y="52" width="96.53" height="10" fill="#b07219" />
    <rect x="445.81" y="52" width="6.05" height="10" fill="#8b949e" />
    <rect x="451.86" y="52" width="5.14" height="10" fill="#4F5D95" />
    <rect x="457.00" y="52" width="4.61" height="10" fill="#3178c6" />
    <rect x="461.61" y="52" width="4.43" height="10" fill="#f1e05a" />
    <rect x="466.04" y="52" width="3.41" height="10" fill="#563d7c" />
    <rect x="469.45" y="52" width="2.00" height="10" fill="#41b883" />
    <rect x="471.45" y="52" width="2.00" height="10" fill="#f34b7d" />
    <rect x="473.45" y="52" width="2.00" height="10" fill="#8b949e" />
    <rect x="475.45" y="52" width="2.00" height="10" fill="#00B4AB" />
    <rect x="477.45" y="52" width="2.00" height="10" fill="#8b949e" />
  </g>

  <!-- Legend -->
  
    <g transform="translate(20, 76)">
      <circle cx="5" cy="5" r="5" fill="#8b949e" />
      <text x="14" y="9" class="lang-name">LLVM</text>
      <text x="14" y="9" class="lang-pct" dx="28.8">72.37%</text>
    </g>
    <g transform="translate(171.66666666666666, 76)">
      <circle cx="5" cy="5" r="5" fill="#b07219" />
      <text x="14" y="9" class="lang-name">Java</text>
      <text x="14" y="9" class="lang-pct" dx="28.8">21.22%</text>
    </g>
    <g transform="translate(323.3333333333333, 76)">
      <circle cx="5" cy="5" r="5" fill="#8b949e" />
      <text x="14" y="9" class="lang-name">Jupyter Notebook</text>
      <text x="14" y="9" class="lang-pct" dx="111.66666666666666">1.33%</text>
    </g>
    <g transform="translate(20, 98)">
      <circle cx="5" cy="5" r="5" fill="#4F5D95" />
      <text x="14" y="9" class="lang-name">PHP</text>
      <text x="14" y="9" class="lang-pct" dx="21.6">1.13%</text>
    </g>
    <g transform="translate(171.66666666666666, 98)">
      <circle cx="5" cy="5" r="5" fill="#3178c6" />
      <text x="14" y="9" class="lang-name">TypeScript</text>
      <text x="14" y="9" class="lang-pct" dx="72">1.01%</text>
    </g>
    <g transform="translate(323.3333333333333, 98)">
      <circle cx="5" cy="5" r="5" fill="#f1e05a" />
      <text x="14" y="9" class="lang-name">JavaScript</text>
      <text x="14" y="9" class="lang-pct" dx="72">0.97%</text>
    </g>
    <g transform="translate(20, 120)">
      <circle cx="5" cy="5" r="5" fill="#563d7c" />
      <text x="14" y="9" class="lang-name">CSS</text>
      <text x="14" y="9" class="lang-pct" dx="21.6">0.75%</text>
    </g>
    <g transform="translate(171.66666666666666, 120)">
      <circle cx="5" cy="5" r="5" fill="#41b883" />
      <text x="14" y="9" class="lang-name">Vue</text>
      <text x="14" y="9" class="lang-pct" dx="21.6">0.36%</text>
    </g>
    <g transform="translate(323.3333333333333, 120)">
      <circle cx="5" cy="5" r="5" fill="#f34b7d" />
      <text x="14" y="9" class="lang-name">C++</text>
      <text x="14" y="9" class="lang-pct" dx="21.6">0.29%</text>
    </g>
    <g transform="translate(20, 142)">
      <circle cx="5" cy="5" r="5" fill="#8b949e" />
      <text x="14" y="9" class="lang-name">CMake</text>
      <text x="14" y="9" class="lang-pct" dx="36">0.25%</text>
    </g>
    <g transform="translate(171.66666666666666, 142)">
      <circle cx="5" cy="5" r="5" fill="#00B4AB" />
      <text x="14" y="9" class="lang-name">Dart</text>
      <text x="14" y="9" class="lang-pct" dx="28.8">0.17%</text>
    </g>
    <g transform="translate(323.3333333333333, 142)">
      <circle cx="5" cy="5" r="5" fill="#8b949e" />
      <text x="14" y="9" class="lang-name">C#</text>
      <text x="14" y="9" class="lang-pct" dx="14.4">0.15%</text>
    </g>
</svg>